<?xml version="1.0" encoding="utf-8"?>
<!-- Generator: Adobe Illustrator 17.1.0, SVG Export Plug-In . SVG Version: 6.00 Build 0)  -->
<!DOCTYPE svg PUBLIC "-//W3C//DTD SVG 1.0//EN" "http://www.w3.org/TR/2001/REC-SVG-20010904/DTD/svg10.dtd">
<svg version="1.0" xmlns="http://www.w3.org/2000/svg" xmlns:xlink="http://www.w3.org/1999/xlink" x="0px" y="0px"
	 viewBox="0 0 100 100" enable-background="new 0 0 100 100" xml:space="preserve">
<g id="Captions">
</g>
<g id="Your_Icon">
	<rect x="0.092" width="99.908" height="100"/>
	<path fill="#FFFFFF" d="M39.73,40.305c0.918-1.216,1.734-2.471,2.721-3.572c2.905-3.241,6.485-5.327,10.85-5.835
		c6.915-0.805,12.445,1.745,16.604,7.24c3.088,4.08,4.263,8.75,3.867,13.851c-0.363,4.672-2.088,8.863-4.427,12.833
		c-3.616,6.139-8.313,11.386-13.638,16.062c-3.222,2.829-6.577,5.51-9.937,8.176c-1.75,1.388-3.645,2.591-5.461,3.897
		c-0.389,0.28-0.689,0.305-1.089,0.011c-3.072-2.267-6.213-4.443-9.223-6.788c-4.32-3.366-8.379-7.035-12.07-11.094
		c-3.387-3.724-6.449-7.685-8.768-12.179c-1.69-3.276-2.953-6.703-3.317-10.392c-0.371-3.759,0.135-7.402,1.737-10.86
		c1.913-4.129,4.859-7.275,8.953-9.263c3.287-1.596,6.787-2.055,10.38-1.414c5.683,1.013,9.81,4.247,12.704,9.165
		C39.648,40.201,39.692,40.252,39.73,40.305z M47.593,81.954c-0.031-0.076-0.061-0.153-0.092-0.229c-1.243,0-2.486,0-3.803,0
		c2.271-10.256,4.513-20.386,6.756-30.517c-0.052-0.032-0.103-0.063-0.155-0.095c-5.077,3.66-10.154,7.319-15.343,11.06
		c0.024-0.341,0.016-0.52,0.052-0.69c0.518-2.402,1.038-4.805,1.567-7.205c0.817-3.705,1.648-7.407,2.453-11.115
		c0.056-0.258,0.032-0.599-0.095-0.822c-1.115-1.974-2.366-3.857-4.103-5.348c-0.859-0.738-1.789-1.393-2.825-2.192
		c-1.287,12.837-2.551,25.456-3.835,38.264c4.398-3.171,8.616-6.211,12.835-9.252c0.059,0.042,0.119,0.084,0.178,0.127
		c-0.779,5.623-1.557,11.246-2.35,16.973c-1.325-0.478-2.545-0.918-3.906-1.408c1.602,3.807,3.151,7.485,4.736,11.252
		C42.372,87.752,44.982,84.853,47.593,81.954z"/>
	<polygon fill="#FFFFFF" points="94.689,13.264 85.847,13.264 85.847,4.422 76.842,4.422 76.842,13.264 68.001,13.264 
		68.001,22.268 76.842,22.268 76.842,31.11 85.847,31.11 85.847,22.268 94.689,22.268 	"/>
</g>
</svg>
